<?xml version="1.0" encoding="utf-8"?>
<!-- Generator: Adobe Illustrator 26.2.1, SVG Export Plug-In . SVG Version: 6.00 Build 0)  -->
<svg version="1.1" id="Capa_1" xmlns="http://www.w3.org/2000/svg" xmlns:xlink="http://www.w3.org/1999/xlink" x="0px" y="0px"
	 viewBox="0 0 323.1 121.7" style="enable-background:new 0 0 323.1 121.7;" xml:space="preserve">
<g>
	<g>
		<path id="Trazado_1_00000146463919168819256390000018291458716543741355_" d="M24.4,39.3c-1.2,0.5-2.4,0.8-3.7,0.8
			c-2.7,0-4.4-1.4-4.4-4.8V24H26v-8.3h-9.6V6.1H5.9v9.6H0L0,24h5.9v12.4c0,8.6,4.9,13,13,13c3.1,0,6.2-0.8,8.9-2.4L24.4,39.3z"/>
		<path id="Trazado_2_00000047018674656990611030000017547342775633580476_" d="M51.8,14.8c-3.8-0.1-7.4,1.4-10.1,4.1V2.4H31.3v46
			h10.4V33.3c0-6.3,2.7-9.1,6.7-9.1c3.4,0,5.7,2.6,5.7,6.4v17.8h10.3v-20C64.4,20.2,59.3,14.8,51.8,14.8z"/>
		<path id="Trazado_3_00000011738072932496582650000015540246102693897118_" d="M92.9,37.3c-1.8,3.2-4.6,3.8-7,3.8
			c-3.5,0-6.2-2.4-7-6.3h23.9v-2.7c-0.2-10.7-7.6-17.3-16.9-17.3c-9.5,0-17.3,7-17.3,17.3c0,10.3,7.8,17.3,17.2,17.3
			c7,0,12.6-2.9,15.6-8.9L92.9,37.3z M86,23.2c3.1-0.1,5.9,2.1,6.6,5.1H79.1C80,25.3,82.8,23.2,86,23.2z"/>
		<path id="Trazado_4_00000047024118798108506950000013255395504639451555_" d="M152.7,49.1h-10.6v-2.6c-2.7,2.5-6.2,3.6-10.3,3.6
			c-4.4,0.1-8.6-1.7-11.5-5c-3.2-3.3-4.8-7.5-4.8-12.7c0-5.1,1.6-9.3,4.8-12.6c3-3.2,7.1-5,11.5-5c4.2,0,7.6,1.2,10.3,3.6v-2.6h10.6
			L152.7,49.1z M139.7,38.7c1.6-1.6,2.5-3.9,2.4-6.2c0.1-2.3-0.8-4.5-2.4-6.2c-3.1-3.2-8.1-3.3-11.3-0.2c-0.1,0-0.1,0.1-0.2,0.2
			c-3,3.6-3,8.8,0,12.4c1.5,1.6,3.6,2.4,5.8,2.4C136.1,41.1,138.2,40.3,139.7,38.7L139.7,38.7z"/>
		<path id="Trazado_5_00000066511454761544492050000001859026948573168034_" d="M195.2,45.9c0,5-1.7,8.9-5.2,11.7
			c-3.4,2.8-7.9,4.2-13.5,4.2c-7.9,0-13.4-2.6-16.7-8l8.8-4.8c1,1.3,2.2,2.4,3.6,3.2c1.3,0.6,2.7,0.9,4.2,0.9c2.2,0.1,4.3-0.7,6-2.1
			c1.6-1.6,2.4-3.7,2.3-6V44c-2.4,2.1-5.8,3.2-9.9,3.2c-4.3,0.1-8.4-1.6-11.3-4.7c-3.1-3.1-4.8-7.3-4.7-11.7
			c-0.1-4.3,1.6-8.5,4.7-11.5c3-3,7.1-4.6,11.3-4.6c4.2,0,7.5,1.1,9.9,3.2v-2.2h10.4L195.2,45.9z M176.9,38.9c2.1,0,4.1-0.7,5.6-2.2
			c1.5-1.4,2.3-3.4,2.3-5.5c0.1-2-0.8-4-2.3-5.4c-1.5-1.4-3.5-2.2-5.6-2.2c-2.1-0.1-4.1,0.7-5.7,2.1c-2.9,3-2.9,7.8,0.1,10.8
			C172.8,38,174.8,38.9,176.9,38.9L176.9,38.9z"/>
		<path id="Trazado_6_00000183964845584187138140000004005672939053120132_" d="M209.1,0c1.7,0,3.3,0.7,4.4,1.9
			c1.2,1.1,1.8,2.6,1.8,4.2c0,1.6-0.6,3.1-1.8,4.2c-1.2,1.1-2.8,1.7-4.4,1.7c-1.6,0.1-3.2-0.6-4.4-1.7c-1.1-1.1-1.7-2.6-1.7-4.2
			c0-1.6,0.6-3.1,1.7-4.3C205.9,0.6,207.5-0.1,209.1,0L209.1,0z M203.8,49.2V16h10.6v33.2H203.8z"/>
		<path id="Trazado_7_00000147196237786140976460000001661366253459264943_" d="M223.1,49V2.4h10.6V49L223.1,49z"/>
		<path id="Trazado_8_00000072995841727337216700000016138939625781403282_" d="M274.4,35.3h-24.4c0.4,1.8,1.3,3.4,2.6,4.7
			c1.2,1.1,2.9,1.7,4.6,1.7c3.3,0,5.7-1.3,7.1-3.8l9.4,1.9c-1.2,3.2-3.4,5.9-6.4,7.7c-3.1,1.8-6.6,2.7-10.1,2.6
			c-9.7,0.1-17.7-7.7-17.8-17.5c-0.1-9.7,7.7-17.7,17.5-17.8c0.1,0,0.3,0,0.4,0c4.5-0.1,8.9,1.6,12.1,4.8c3.2,3.2,4.8,7.5,5,12.8
			L274.4,35.3z M253,25c-1.3,0.9-2.3,2.3-2.7,3.8H264c-0.4-1.6-1.2-2.9-2.5-3.9c-1.2-0.9-2.7-1.3-4.2-1.3
			C255.7,23.6,254.2,24.1,253,25L253,25z"/>
	</g>
	<g>
		<path id="Trazado_9_00000036931385497900280870000007473452881823918249_" d="M323.1,100.2c0.1,5.4-4.3,9.9-9.7,9.9
			c-5.4,0.1-9.9-4.3-9.9-9.7c-0.1-5.4,4.3-9.9,9.7-9.9c0,0,0.1,0,0.1,0C318.7,90.6,323,94.9,323.1,100.2z"/>
		<path id="Trazado_10_00000057108473858842379990000001506039979348475786_" d="M97.9,81.2c3.5,3.2,5.4,7.8,5.3,12.5
			c0.2,4.8-1.8,9.4-5.3,12.6c-3.5,3.3-8.1,5-12.9,4.9c-4.8,0.1-9.5-1.6-13.1-4.9c-3.6-3.2-5.5-7.8-5.4-12.6
			c-0.1-4.8,1.8-9.3,5.4-12.5c3.6-3.3,8.3-5,13.1-4.9C89.7,76.2,94.4,78,97.9,81.2z M90.6,100c3.2-3.5,3.2-8.8,0-12.3
			c-1.4-1.5-3.5-2.4-5.6-2.4c-4.6,0-8.2,3.7-8.2,8.3c0,0.1,0,0.2,0,0.2c-0.1,2.3,0.8,4.5,2.4,6.2c1.5,1.6,3.6,2.4,5.8,2.4
			C87.1,102.4,89.1,101.6,90.6,100L90.6,100z"/>
		<path id="Trazado_11_00000099645806904161519450000008650978047219041160_" d="M129.9,76.2c3.5-0.1,6.9,1.3,9.3,3.8
			c2.4,2.5,3.6,5.8,3.6,10v20.4h-10.5V92.3c0.1-1.7-0.5-3.4-1.6-4.7c-1-1.2-2.5-1.8-4.1-1.8c-1.9-0.1-3.8,0.7-5,2.2
			c-1.2,1.5-1.8,3.8-1.8,7v15.4h-10.6V77.2h10.6v3.2C122.3,77.6,126.1,76.1,129.9,76.2L129.9,76.2z"/>
		<path id="Trazado_12_00000026846607454368821780000017004445852812051896_" d="M173.8,110.4l-10.8-12h-1.9v12h-10.6V64h10.6v24.5
			h1.5l10.5-11.3h12.8L171.3,93l16.1,17.4L173.8,110.4z"/>
		<path id="Trazado_13_00000031888525587418753850000013713334474416620215_" d="M221.9,96.7h-24.4c0.4,1.8,1.3,3.4,2.6,4.7
			c1.2,1.1,2.9,1.7,4.6,1.7c3.3,0,5.7-1.3,7.1-3.8l9.4,1.9c-1.2,3.2-3.4,5.9-6.4,7.7c-3.1,1.8-6.6,2.7-10.1,2.6
			c-9.7,0.1-17.7-7.7-17.8-17.5s7.7-17.7,17.5-17.8c0.1,0,0.3,0,0.4,0c4.5-0.1,8.9,1.6,12.1,4.8c3.2,3.2,4.8,7.5,5,12.8L221.9,96.7z
			 M200.5,86.3c-1.3,0.9-2.3,2.3-2.7,3.8h13.7c-0.4-1.6-1.2-2.9-2.5-3.9c-1.2-0.9-2.7-1.3-4.2-1.3C203.2,84.9,201.7,85.4,200.5,86.3
			L200.5,86.3z"/>
		<path id="Trazado_14_00000013175375226551367400000003636124989934038949_" d="M243.1,121.7h-11.5l5.4-12.4l-13.8-32.2h11.4
			l7.9,19.4l8.4-19.4h11.4L243.1,121.7z"/>
		<path id="Trazado_15_00000181798485484934760960000015102633560251496369_" d="M273.9,99.7c0.5,2.6,2.4,3.9,6,3.9
			c1.1,0.1,2.2-0.2,3.2-0.8c0.7-0.4,1.2-1.1,1.2-1.9c0-1.3-1.1-2.1-3.3-2.4l-6.8-1.3c-6.4-1.3-9.7-4.4-9.7-9.7
			c-0.1-3.2,1.4-6.2,4-8.1c2.6-2.1,6.1-3.1,10.3-3.1c4,0,7.4,0.9,10.1,2.6c2.5,1.6,4.3,4.1,5,7l-9.7,1.9c-0.2-1.1-0.8-2.1-1.8-2.8
			c-1.1-0.8-2.4-1.2-3.8-1.1c-1-0.1-2,0.2-2.8,0.8c-0.6,0.5-0.9,1.1-0.9,1.9c0,1.2,0.9,2,2.5,2.3l7.8,1.6c2.6,0.4,5,1.7,6.9,3.6
			c1.5,1.8,2.4,4,2.3,6.4c0.1,3.3-1.4,6.4-4.2,8.3c-2.8,1.9-6.4,2.9-10.9,2.9c-3.7,0.1-7.3-0.7-10.5-2.4c-2.8-1.5-4.6-4.2-5-7.3
			L273.9,99.7z"/>
		<g id="Grupo_2_00000057862658257542929060000009050836826200151709_" transform="translate(0 15.17)">
			<path id="Trazado_16_00000067230549361450275130000007904920341996190390_" d="M48.3,61c3.4-0.1,6.7,1.3,9.1,3.8
				c2.4,2.5,3.6,5.7,3.6,9.7v20.7H50.5V76.8c0.1-1.6-0.5-3.3-1.6-4.5c-1-1.1-2.5-1.7-4-1.7c-1.8-0.1-3.6,0.7-4.7,2.2
				c-1.2,1.5-1.8,3.5-1.8,6.2v16.2H27.9V76.7c0.1-1.6-0.5-3.3-1.6-4.5c-1-1.1-2.5-1.8-4-1.7c-1.8-0.1-3.5,0.7-4.6,2.2
				c-1.1,1.5-1.6,3.5-1.6,6.2v16.2H5.5V62H16v3c2.4-2.7,5.7-4,9.8-4c4.9,0,8.5,1.8,10.8,5.6C39.4,62.8,43.3,61,48.3,61L48.3,61z"/>
		</g>
	</g>
</g>
</svg>
